<svg width="100%" viewBox="0 0 680 680" xmlns="http://www.w3.org/2000/svg" role="img">
<title>Apex Solution hero poster — Addis Ababa circuit topology</title>
<desc>Premium dark illustration showing an abstract cityscape of Addis Ababa rendered as a circuit board topology, with the Apex Solution brand mark at center and radial network lines connecting nodes representing their services.</desc>
<defs>
  <linearGradient id="bgG" x1="0" y1="0" x2="0" y2="1"><stop offset="0%" stop-color="#0A0F1C"/><stop offset="100%" stop-color="#060810"/></linearGradient>
  <linearGradient id="amberG" x1="0" y1="0" x2="1" y2="1"><stop offset="0%" stop-color="#F5A623"/><stop offset="100%" stop-color="#E8940F"/></linearGradient>
  <radialGradient id="centerGlow" cx="50%" cy="50%" r="50%"><stop offset="0%" stop-color="#F5A623" stop-opacity="0.18"/><stop offset="40%" stop-color="#2563EB" stop-opacity="0.08"/><stop offset="100%" stop-color="#0A0F1C" stop-opacity="0"/></radialGradient>
  <radialGradient id="nodeGlowA" cx="50%" cy="50%" r="50%"><stop offset="0%" stop-color="#F5A623" stop-opacity="0.5"/><stop offset="100%" stop-color="#F5A623" stop-opacity="0"/></radialGradient>
  <radialGradient id="nodeGlowB" cx="50%" cy="50%" r="50%"><stop offset="0%" stop-color="#2563EB" stop-opacity="0.5"/><stop offset="100%" stop-color="#2563EB" stop-opacity="0"/></radialGradient>
  <radialGradient id="nodeGlowC" cx="50%" cy="50%" r="50%"><stop offset="0%" stop-color="#06B6D4" stop-opacity="0.5"/><stop offset="100%" stop-color="#06B6D4" stop-opacity="0"/></radialGradient>
</defs>
<rect width="680" height="680" fill="url(#bgG)" rx="20"/>
<rect width="680" height="680" fill="url(#centerGlow)" rx="20"/>
<g opacity="0.06" stroke="#A1B0C4" stroke-width="0.5" fill="none">
  <line x1="0" y1="40" x2="680" y2="40"/><line x1="0" y1="80" x2="680" y2="80"/><line x1="0" y1="120" x2="680" y2="120"/><line x1="0" y1="160" x2="680" y2="160"/><line x1="0" y1="200" x2="680" y2="200"/><line x1="0" y1="240" x2="680" y2="240"/><line x1="0" y1="280" x2="680" y2="280"/><line x1="0" y1="320" x2="680" y2="320"/><line x1="0" y1="360" x2="680" y2="360"/><line x1="0" y1="400" x2="680" y2="400"/><line x1="0" y1="440" x2="680" y2="440"/><line x1="0" y1="480" x2="680" y2="480"/><line x1="0" y1="520" x2="680" y2="520"/><line x1="0" y1="560" x2="680" y2="560"/><line x1="0" y1="600" x2="680" y2="600"/><line x1="0" y1="640" x2="680" y2="640"/>
  <line x1="40" y1="0" x2="40" y2="680"/><line x1="80" y1="0" x2="80" y2="680"/><line x1="120" y1="0" x2="120" y2="680"/><line x1="160" y1="0" x2="160" y2="680"/><line x1="200" y1="0" x2="200" y2="680"/><line x1="240" y1="0" x2="240" y2="680"/><line x1="280" y1="0" x2="280" y2="680"/><line x1="320" y1="0" x2="320" y2="680"/><line x1="360" y1="0" x2="360" y2="680"/><line x1="400" y1="0" x2="400" y2="680"/><line x1="440" y1="0" x2="440" y2="680"/><line x1="480" y1="0" x2="480" y2="680"/><line x1="520" y1="0" x2="520" y2="680"/><line x1="560" y1="0" x2="560" y2="680"/><line x1="600" y1="0" x2="600" y2="680"/><line x1="640" y1="0" x2="640" y2="680"/>
</g>
<g opacity="0.5" fill="none"><circle cx="340" cy="340" r="120" stroke="#1A2B4A" stroke-width="0.8"/><circle cx="340" cy="340" r="180" stroke="#1A2B4A" stroke-width="0.5"/><circle cx="340" cy="340" r="240" stroke="#1A2B4A" stroke-width="0.4" stroke-dasharray="4 6"/><circle cx="340" cy="340" r="300" stroke="#0D1B30" stroke-width="0.4"/></g>
<g fill="none" stroke-linecap="round">
  <path d="M 340 340 L 340 220 L 200 140" stroke="#F5A623" stroke-width="1.5" opacity="0.7"/>
  <path d="M 340 340 L 460 220 L 540 140" stroke="#2563EB" stroke-width="1.5" opacity="0.7"/>
  <path d="M 340 340 L 540 340 L 600 280" stroke="#06B6D4" stroke-width="1.5" opacity="0.7"/>
  <path d="M 340 340 L 540 460 L 580 560" stroke="#F5A623" stroke-width="1.5" opacity="0.6"/>
  <path d="M 340 340 L 200 460 L 120 560" stroke="#2563EB" stroke-width="1.5" opacity="0.6"/>
  <path d="M 340 340 L 160 340 L 80 290" stroke="#8B5CF6" stroke-width="1.5" opacity="0.6"/>
  <path d="M 340 340 L 200 220 L 140 180" stroke="#06B6D4" stroke-width="1" opacity="0.5"/>
  <path d="M 340 340 L 440 440 L 460 520" stroke="#8B5CF6" stroke-width="1" opacity="0.5"/>
  <circle cx="200" cy="140" r="16" fill="#0D1B30" stroke="#F5A623" stroke-width="1.5"/>
  <circle cx="540" cy="140" r="16" fill="#0D1B30" stroke="#2563EB" stroke-width="1.5"/>
  <circle cx="600" cy="280" r="14" fill="#0D1B30" stroke="#06B6D4" stroke-width="1.5"/>
  <circle cx="580" cy="560" r="14" fill="#0D1B30" stroke="#F5A623" stroke-width="1.5"/>
  <circle cx="120" cy="560" r="14" fill="#0D1B30" stroke="#2563EB" stroke-width="1.5"/>
  <circle cx="80" cy="290" r="14" fill="#0D1B30" stroke="#8B5CF6" stroke-width="1.5"/>
  <circle cx="460" cy="220" r="10" fill="#2563EB" opacity="0.8"/>
  <circle cx="200" cy="460" r="10" fill="#2563EB" opacity="0.8"/>
  <circle cx="140" cy="180" r="8" fill="#06B6D4" opacity="0.8"/>
  <circle cx="460" cy="520" r="8" fill="#8B5CF6" opacity="0.8"/>
</g>
<circle cx="200" cy="140" r="30" fill="url(#nodeGlowA)" opacity="0.6"/>
<circle cx="540" cy="140" r="30" fill="url(#nodeGlowB)" opacity="0.6"/>
<circle cx="600" cy="280" r="26" fill="url(#nodeGlowC)" opacity="0.6"/>
<circle cx="580" cy="560" r="26" fill="url(#nodeGlowA)" opacity="0.5"/>
<circle cx="120" cy="560" r="26" fill="url(#nodeGlowB)" opacity="0.5"/>
<circle cx="80" cy="290" r="26" fill="url(#nodeGlowC)" opacity="0.5"/>
<g font-family="'Outfit','Segoe UI',sans-serif" text-anchor="middle">
  <text x="200" y="126" font-size="7" fill="#F5A623" font-weight="700" letter-spacing="1.5">SOFTWARE</text>
  <text x="200" y="137" font-size="7" fill="#F5A623" font-weight="700" letter-spacing="1.5">DEV</text>
  <text x="540" y="136" font-size="7" fill="#85B7EB" font-weight="700" letter-spacing="1.5">HOTEL TECH</text>
  <text x="624" y="276" font-size="7" fill="#67E8F9" font-weight="700" letter-spacing="1" text-anchor="start">NETWORK</text>
  <text x="592" y="562" font-size="7" fill="#F5A623" font-weight="700" letter-spacing="1.5">CCTV</text>
  <text x="100" y="574" font-size="7" fill="#85B7EB" font-weight="700" letter-spacing="1">CONSULTING</text>
  <text x="44" y="289" font-size="7" fill="#C4B5FD" font-weight="700" letter-spacing="1">AI SYSTEMS</text>
</g>
<g opacity="0.25" fill="none" stroke="#A1B0C4" stroke-width="0.4">
  <rect x="55" y="510" width="30" height="60" rx="2"/><rect x="90" y="490" width="20" height="80" rx="2"/><rect x="115" y="530" width="25" height="40" rx="2"/><rect x="145" y="500" width="18" height="70" rx="2"/><rect x="168" y="540" width="22" height="30" rx="2"/>
  <rect x="500" y="490" width="20" height="80" rx="2"/><rect x="525" y="510" width="30" height="60" rx="2"/><rect x="560" y="520" width="18" height="50" rx="2"/><rect x="583" y="505" width="22" height="65" rx="2"/><rect x="610" y="515" width="16" height="55" rx="2"/>
  <rect x="310" y="50" width="14" height="50" rx="2"/><rect x="330" y="30" width="18" height="70" rx="2"/><rect x="354" y="45" width="12" height="55" rx="2"/><rect x="370" y="58" width="20" height="42" rx="2"/>
</g>
<circle cx="340" cy="340" r="65" fill="#0A0F1C" stroke="#F5A623" stroke-width="1.5" opacity="0.95"/>
<circle cx="340" cy="340" r="58" fill="none" stroke="#1A2B4A" stroke-width="0.8"/>
<g transform="translate(313, 306)">
  <polygon points="27,0 0,54 11,54 27,19 43,54 54,54" fill="#FFFFFF" opacity="0.95"/>
  <polygon points="27,27 20,54 34,54" fill="#F5A623"/>
  <rect x="7" y="40" width="40" height="3.5" rx="1.75" fill="#F5A623" opacity="0.9"/>
  <circle cx="46" cy="8" r="3.5" fill="#F5A623"/>
  <line x1="46" y1="8" x2="52" y2="18" stroke="#F5A623" stroke-width="1.5" stroke-linecap="round"/>
</g>
<text x="340" y="390" font-family="'Outfit','Segoe UI',sans-serif" font-size="10" font-weight="700" fill="#F5A623" text-anchor="middle" letter-spacing="4">APEX SOLUTION</text>
<g opacity="0.15" fill="none"><circle cx="340" cy="340" r="85" stroke="#F5A623" stroke-width="1" stroke-dasharray="2 8"/><circle cx="340" cy="340" r="100" stroke="#F5A623" stroke-width="0.5" stroke-dasharray="1 12"/></g>
<g opacity="0.08" fill="none" stroke="#2563EB" stroke-width="0.4"><path d="M 60 120 L 120 120 L 120 180"/><path d="M 620 120 L 560 120 L 560 180"/><path d="M 60 560 L 120 560 L 120 500"/><path d="M 620 560 L 560 560 L 560 500"/></g>
<text x="340" y="648" font-family="'Outfit','Segoe UI',sans-serif" font-size="9" fill="#A1B0C4" text-anchor="middle" letter-spacing="3" opacity="0.5">BUILDING ETHIOPIA'S DIGITAL FUTURE</text>
</svg>
